<svg width="60" height="60" viewBox="0 0 60 60" fill="none" xmlns="http://www.w3.org/2000/svg">
<path d="M48.5425 16.6974C51.1175 19.4324 52.5 22.4999 52.5 27.4724C52.5 36.2224 46.3575 44.0649 37.425 47.9424L35.1925 44.4974C43.53 39.9874 45.16 34.1349 45.81 30.4449C44.4675 31.1399 42.71 31.3824 40.9875 31.2224C36.4775 30.8049 32.9225 27.1024 32.9225 22.4999C32.9225 20.1792 33.8444 17.9536 35.4853 16.3127C37.1263 14.6717 39.3519 13.7499 41.6725 13.7499C44.355 13.7499 46.92 14.9749 48.5425 16.6974ZM23.5425 16.6974C26.1175 19.4324 27.5 22.4999 27.5 27.4724C27.5 36.2224 21.3575 44.0649 12.425 47.9424L10.1925 44.4974C18.53 39.9874 20.16 34.1349 20.81 30.4449C19.4675 31.1399 17.71 31.3824 15.9875 31.2224C11.4775 30.8049 7.9225 27.1024 7.9225 22.4999C7.9225 20.1792 8.84437 17.9536 10.4853 16.3127C12.1263 14.6717 14.3519 13.7499 16.6725 13.7499C19.355 13.7499 21.92 14.9749 23.5425 16.6974Z" fill="#D1D6DB"/>
</svg>
